<mxfile host="app.diagrams.net" modified="2023-06-15T22:00:21.134Z" agent="Mozilla/5.0 (Windows NT 10.0; Win64; x64; rv:109.0) Gecko/20100101 Firefox/112.0" etag="P7k4yd5kCats9tXpZjnS" version="21.3.8" type="github">
  <diagram name="Page-1" id="03018318-947c-dd8e-b7a3-06fadd420f32">
    <mxGraphModel dx="1592" dy="1106" grid="1" gridSize="10" guides="1" tooltips="1" connect="1" arrows="1" fold="1" page="1" pageScale="1" pageWidth="1100" pageHeight="850" background="#ffffff" math="0" shadow="0">
      <root>
        <mxCell id="0" />
        <mxCell id="1" parent="0" />
        <mxCell id="6hDoJpoJuD7VncbWT8Fn-13" value="" style="rounded=0;whiteSpace=wrap;html=1;fillColor=#6a00ff;fontColor=#ffffff;strokeColor=#3700CC;" vertex="1" parent="1">
          <mxGeometry width="1100" height="850" as="geometry" />
        </mxCell>
        <mxCell id="6hDoJpoJuD7VncbWT8Fn-1" value="" style="rounded=0;whiteSpace=wrap;html=1;labelBorderColor=none;fillColor=default;strokeColor=none;" vertex="1" parent="1">
          <mxGeometry x="440" width="660" height="850" as="geometry" />
        </mxCell>
        <mxCell id="6hDoJpoJuD7VncbWT8Fn-2" value="" style="html=1;shadow=0;dashed=0;shape=mxgraph.bootstrap.rrect;rSize=5;fillColor=#ffffff;strokeColor=#999999;" vertex="1" parent="1">
          <mxGeometry x="530" y="253" width="430" height="345" as="geometry" />
        </mxCell>
        <mxCell id="6hDoJpoJuD7VncbWT8Fn-3" value="Email address" style="fillColor=none;strokeColor=none;align=left;spacing=20;fontSize=14;" vertex="1" parent="6hDoJpoJuD7VncbWT8Fn-2">
          <mxGeometry width="220" height="40" relative="1" as="geometry">
            <mxPoint y="10" as="offset" />
          </mxGeometry>
        </mxCell>
        <mxCell id="6hDoJpoJuD7VncbWT8Fn-4" value="email@example.com" style="html=1;shadow=0;dashed=0;shape=mxgraph.bootstrap.rrect;rSize=5;fillColor=none;strokeColor=#999999;align=left;spacing=15;fontSize=14;fontColor=#6C767D;" vertex="1" parent="6hDoJpoJuD7VncbWT8Fn-2">
          <mxGeometry width="300" height="30" relative="1" as="geometry">
            <mxPoint x="20" y="50" as="offset" />
          </mxGeometry>
        </mxCell>
        <mxCell id="6hDoJpoJuD7VncbWT8Fn-5" value="Password" style="fillColor=none;strokeColor=none;align=left;spacing=20;fontSize=14;" vertex="1" parent="6hDoJpoJuD7VncbWT8Fn-2">
          <mxGeometry width="220" height="40" relative="1" as="geometry">
            <mxPoint y="90" as="offset" />
          </mxGeometry>
        </mxCell>
        <mxCell id="6hDoJpoJuD7VncbWT8Fn-6" value="Password" style="html=1;shadow=0;dashed=0;shape=mxgraph.bootstrap.rrect;rSize=5;fillColor=none;strokeColor=#999999;align=left;spacing=15;fontSize=14;fontColor=#6C767D;" vertex="1" parent="6hDoJpoJuD7VncbWT8Fn-2">
          <mxGeometry width="300" height="30" relative="1" as="geometry">
            <mxPoint x="20" y="130" as="offset" />
          </mxGeometry>
        </mxCell>
        <mxCell id="6hDoJpoJuD7VncbWT8Fn-7" value="Remember me" style="html=1;shadow=0;dashed=0;shape=mxgraph.bootstrap.rrect;rSize=2;fillColor=#EDEDED;strokeColor=#999999;align=left;fontSize=14;fontColor=#000000;labelPosition=right;verticalLabelPosition=middle;verticalAlign=middle;spacingLeft=5;spacingTop=-2;gradientColor=#DEDEDE;" vertex="1" parent="6hDoJpoJuD7VncbWT8Fn-2">
          <mxGeometry width="10" height="10" relative="1" as="geometry">
            <mxPoint x="20" y="180" as="offset" />
          </mxGeometry>
        </mxCell>
        <mxCell id="6hDoJpoJuD7VncbWT8Fn-8" value="Sign in" style="html=1;shadow=0;dashed=0;shape=mxgraph.bootstrap.rrect;rSize=5;fillColor=#0085FC;strokeColor=none;align=center;fontSize=14;fontColor=#FFFFFF;" vertex="1" parent="6hDoJpoJuD7VncbWT8Fn-2">
          <mxGeometry width="70" height="40" relative="1" as="geometry">
            <mxPoint x="20" y="210" as="offset" />
          </mxGeometry>
        </mxCell>
        <mxCell id="6hDoJpoJuD7VncbWT8Fn-9" value="" style="shape=line;strokeColor=#999999;perimeter=none;resizeWidth=1;" vertex="1" parent="6hDoJpoJuD7VncbWT8Fn-2">
          <mxGeometry width="430" height="10" relative="1" as="geometry">
            <mxPoint y="260" as="offset" />
          </mxGeometry>
        </mxCell>
        <mxCell id="6hDoJpoJuD7VncbWT8Fn-10" value="New around here? Sign up&lt;br&gt;&lt;br&gt;Forgot password?" style="html=1;fillColor=none;strokeColor=none;align=left;spacing=20;fontSize=14;" vertex="1" parent="6hDoJpoJuD7VncbWT8Fn-2">
          <mxGeometry width="220" height="60" relative="1" as="geometry">
            <mxPoint y="275" as="offset" />
          </mxGeometry>
        </mxCell>
        <mxCell id="6hDoJpoJuD7VncbWT8Fn-12" value="&lt;div&gt;miRNA科研档案系统&lt;/div&gt;" style="text;strokeColor=none;align=left;fillColor=none;html=1;verticalAlign=middle;whiteSpace=wrap;rounded=0;fontSize=32;" vertex="1" parent="1">
          <mxGeometry x="530" y="170" width="440" height="30" as="geometry" />
        </mxCell>
      </root>
    </mxGraphModel>
  </diagram>
</mxfile>
